{
  "accessors": [
    {
      "bufferView": 2,
      "componentType": 5126,
      "count": 64,
      "max": [
        1.0,
        1.0,
        0.0570681169629097
      ],
      "min": [
        -1.0,
        -1.0,
        -0.11517763882875443
      ],
      "type": "VEC3"
    },
    {
      "bufferView": 2,
      "byteOffset": 768,
      "componentType": 5126,
      "count": 64,
      "max": [
        1.0,
        1.0,
        1.0
      ],
      "min": [
        -1.0,
        -1.0,
        -1.0
      ],
      "type": "VEC3"
    },
    {
      "bufferView": 3,
      "componentType": 5126,
      "count": 64,
      "max": [
        1.0,
        1.0,
        1.0,
        1.0
      ],
      "min": [
        -1.0,
        -0.995993435382843,
        -1.0,
        -1.0
      ],
      "type": "VEC4"
    },
    {
      "bufferView": 1,
      "componentType": 5126,
      "count": 64,
      "max": [
        0.9982329607009888,
        0.9982372522354126
      ],
      "min": [
        0.0013190672034397721,
        0.0016659171087667346
      ],
      "type": "VEC2"
    },
    {
      "bufferView": 1,
      "byteOffset": 512,
      "componentType": 5126,
      "count": 64,
      "max": [
        0.9706088900566101,
        0.9867540001869202
      ],
      "min": [
        0.7679471373558044,
        0.7673807144165039
      ],
      "type": "VEC2"
    },
    {
      "bufferView": 1,
      "byteOffset": 1024,
      "componentType": 5126,
      "count": 64,
      "max": [
        0.9706088900566101,
        0.9867540001869202
      ],
      "min": [
        0.7679471373558044,
        0.7673807144165039
      ],
      "type": "VEC2"
    },
    {
      "bufferView": 0,
      "componentType": 5125,
      "count": 96,
      "type": "SCALAR"
    }
  ],
  "asset": {
    "extras": {
      "author": "toya_mimura (https://sketchfab.com/toya_mimura)",
      "license": "CC-BY-4.0 (http://creativecommons.org/licenses/by/4.0/)",
      "source": "https://sketchfab.com/3d-models/frame01-lowpoly-1a39ed98900c430fb8054bd8014736a5",
      "title": "Frame01_lowPoly"
    },
    "generator": "Sketchfab-16.12.0",
    "version": "2.0"
  },
  "bufferViews": [
    {
      "buffer": 0,
      "byteLength": 384,
      "name": "floatBufferViews",
      "target": 34963
    },
    {
      "buffer": 0,
      "byteLength": 1536,
      "byteOffset": 384,
      "byteStride": 8,
      "name": "floatBufferViews",
      "target": 34962
    },
    {
      "buffer": 0,
      "byteLength": 1536,
      "byteOffset": 1920,
      "byteStride": 12,
      "name": "floatBufferViews",
      "target": 34962
    },
    {
      "buffer": 0,
      "byteLength": 1024,
      "byteOffset": 3456,
      "byteStride": 16,
      "name": "floatBufferViews",
      "target": 34962
    }
  ],
  "buffers": [
    {
      "byteLength": 4480,
      "uri": "scene.bin"
    }
  ],
  "extensionsUsed": [
    "KHR_materials_specular"
  ],
  "images": [
    {
      "uri": "textures/mat_Frame_1_silver_normal.png"
    }
  ],
  "materials": [
    {
      "doubleSided": true,
      "extensions": {
        "KHR_materials_specular": {
          "specularColorFactor": [
            1.0,
            1.0,
            1.0
          ],
          "specularFactor": 0.5104777462178932
        }
      },
      "name": "mat_Frame_1_silver",
      "normalTexture": {
        "index": 0
      },
      "pbrMetallicRoughness": {
        "baseColorFactor": [
          0.40395232919355684,
          0.20422622653541456,
          0.08003753318060638,
          1.0
        ],
        "roughnessFactor": 0.07771452255854494
      }
    }
  ],
  "meshes": [
    {
      "name": "frame_01_Target2_mat_Frame_1_silver_0",
      "primitives": [
        {
          "attributes": {
            "NORMAL": 1,
            "POSITION": 0,
            "TANGENT": 2,
            "TEXCOORD_0": 3,
            "TEXCOORD_1": 4,
            "TEXCOORD_2": 5
          },
          "indices": 6,
          "material": 0,
          "mode": 4
        }
      ]
    }
  ],
  "nodes": [
    {
      "children": [
        1
      ],
      "matrix": [
        1.0,
        0.0,
        0.0,
        0.0,
        0.0,
        2.220446049250313e-16,
        -1.0,
        0.0,
        0.0,
        1.0,
        2.220446049250313e-16,
        0.0,
        0.0,
        0.0,
        0.0,
        1.0
      ],
      "name": "Sketchfab_model"
    },
    {
      "children": [
        2
      ],
      "matrix": [
        0.009999999776482582,
        0.0,
        0.0,
        0.0,
        0.0,
        0.0,
        0.009999999776482582,
        0.0,
        0.0,
        -0.009999999776482582,
        0.0,
        0.0,
        0.0,
        0.0,
        0.0,
        1.0
      ],
      "name": "a75c0dc574e34aa4b0ccda4d1c2904d4.fbx"
    },
    {
      "children": [
        3
      ],
      "name": "RootNode"
    },
    {
      "children": [
        4
      ],
      "matrix": [
        7.775674819946289,
        0.0,
        0.0,
        0.0,
        0.0,
        7.775674819946281,
        3.398855412460833e-07,
        0.0,
        0.0,
        -5.493144888382484e-07,
        12.566850662231433,
        0.0,
        7.758752346038818,
        22.490816116333008,
        1.2373875379562378,
        1.0
      ],
      "name": "frame_01_Target2"
    },
    {
      "mesh": 0,
      "name": "frame_01_Target2_mat_Frame_1_silver_0"
    }
  ],
  "samplers": [
    {
      "magFilter": 9729,
      "minFilter": 9987,
      "wrapS": 10497,
      "wrapT": 10497
    }
  ],
  "scene": 0,
  "scenes": [
    {
      "name": "Sketchfab_Scene",
      "nodes": [
        0
      ]
    }
  ],
  "textures": [
    {
      "sampler": 0,
      "source": 0
    }
  ]
}
